# xmcd
#
# Track frame offsets:
#	17800
#	33530
#	53147
#	75185
#	92612
#	108252
#	125312
#	147422
#	165277
#	178932
#	200975
#	218655
#	235450
#	262725
#	285952
#
# Disc length: 4433 seconds
#
# Revision: 6
# Processed by: cddbd v1.5.2PL0 Copyright (c) Steve Scherf et al.
# Submitted via: audiograbber 1.83.01
#
DISCID=d110640f
DTITLE=Various Artist - Knights Of The Blues Table
DYEAR=1997
DGENRE=Blues
TTITLE0=Jack Bruce - Send For Me
TTITLE1=Georgie Fame - If You Live
TTITLE2=Duffy Power - Go Down, Sunshine
TTITLE3=Chris Jagger featuring Mick Jagger - Racketeer Blues
TTITLE4=Pete Brown and Phil Ryan - Rocks In My Bed
TTITLE5=Miller Anderson - Don't Let Me Be Misunderstood
TTITLE6=Maggie Bell and Big Jim Sullivan - Blind Man
TTITLE7=Peter Green and Nigel Watson - Travelling Riverside Blues
TTITLE8=TS McPhee - Drop Down Mama
TTITLE9=Clem Clempson - I've Got News For You
TTITLE10=Nine Below Zero - Nine Below Zero
TTITLE11=The Pretty Things - Judgment Day
TTITLE12=Paul Jones and Otis Grand - Play On Little Girl/T-Bone Shuffle
TTITLE13=Mick Clarke and Lou Martin - One More Mile
TTITLE14=Mick Taylor and Max Middleton - You Shook Me
EXTD=Extra Track 01 - KC Moan - before the first track YEAR: 1996
EXTT0=
EXTT1=
EXTT2=
EXTT3=
EXTT4=
EXTT5=
EXTT6=
EXTT7=
EXTT8=
EXTT9=
EXTT10=
EXTT11=
EXTT12=
EXTT13=
EXTT14=
PLAYORDER=
